<svg width="39" height="36" viewBox="0 0 39 36" fill="none" xmlns="http://www.w3.org/2000/svg">
<path d="M35.0556 14L32.1671 28.8552C31.8107 30.6878 31.6326 31.6042 31.1674 32.2896C30.7572 32.894 30.1925 33.37 29.5359 33.6652C28.7911 34 27.8827 34 26.0656 34H12.9343C11.1173 34 10.2088 34 9.46412 33.6652C8.80744 33.37 8.24283 32.894 7.83263 32.2896C7.36746 31.6042 7.18929 30.6878 6.83294 28.8552L3.94444 14M35.0556 14H31.1667M35.0556 14H37M3.94444 14H2M3.94444 14H7.83333M31.1667 14H7.83333M31.1667 14L25.3333 2M7.83333 14L13.6667 2M13.6667 20V26M19.5 20V26M25.3333 20V26" stroke="#790252" stroke-width="3" stroke-linecap="round" stroke-linejoin="round"/>
</svg>
