<svg width="408" height="207" viewBox="0 0 408 207" fill="none" xmlns="http://www.w3.org/2000/svg">
<path d="M208 116C157.742 116 117 156.742 117 207H299C299 156.742 258.258 116 208 116Z" fill="#A91079"/>
<path d="M385 207C385 107.036 303.964 26 204 26C104.036 26 23 107.036 23 207H0C0 94.3339 91.3339 3 204 3C316.666 3 408 94.3339 408 207H385Z" fill="white"/>
<path d="M175.545 73.0222C176.085 75.1643 174.787 77.3386 172.644 77.8787C155.008 82.3246 138.42 90.2008 123.828 101.057C109.235 111.914 96.9242 125.539 87.5972 141.153C78.2703 156.768 72.1101 174.067 69.4686 192.062C68.7404 197.022 68.2835 202.009 68.0968 207H60.0916C60.2818 201.621 60.7686 196.246 61.5534 190.9C64.3476 171.865 70.8635 153.567 80.7292 137.051C90.5949 120.534 103.617 106.123 119.053 94.639C134.488 83.1553 152.034 74.8241 170.689 70.1214C172.831 69.5813 175.005 70.8801 175.545 73.0222Z" fill="white"/>
<circle cx="350" cy="51" r="51" fill="#570A57"/>
</svg>
