<svg width="52" height="51" viewBox="0 0 52 51" fill="none" xmlns="http://www.w3.org/2000/svg">
<path fill-rule="evenodd" clip-rule="evenodd" d="M25.9999 38.8479C33.8323 38.8479 40.1818 32.7092 40.1818 25.1369C40.1818 17.5644 33.8323 11.4258 25.9999 11.4258C18.1675 11.4258 11.8181 17.5644 11.8181 25.1369C11.8181 32.7092 18.1675 38.8479 25.9999 38.8479ZM25.9999 34.2776C31.2214 34.2776 35.4545 30.185 35.4545 25.1369C35.4545 20.0886 31.2214 15.9961 25.9999 15.9961C20.7783 15.9961 16.5454 20.0886 16.5454 25.1369C16.5454 30.185 20.7783 34.2776 25.9999 34.2776Z" fill="#790252"/>
<path d="M40.1818 9.14075C38.8763 9.14075 37.8181 10.1639 37.8181 11.4259C37.8181 12.688 38.8763 13.7111 40.1818 13.7111C41.4872 13.7111 42.5454 12.688 42.5454 11.4259C42.5454 10.1639 41.4872 9.14075 40.1818 9.14075Z" fill="#790252"/>
<path fill-rule="evenodd" clip-rule="evenodd" d="M1.54572 7.48638C0 10.4193 0 14.2588 0 21.9377V28.3362C0 36.0151 0 39.8547 1.54572 42.7875C2.90538 45.3674 5.07492 47.465 7.74341 48.7794C10.7771 50.2739 14.7484 50.2739 22.6909 50.2739H29.3091C37.2516 50.2739 41.223 50.2739 44.2565 48.7794C46.925 47.465 49.0946 45.3674 50.4542 42.7875C52 39.8547 52 36.0151 52 28.3362V21.9377C52 14.2588 52 10.4193 50.4542 7.48638C49.0946 4.90646 46.925 2.80894 44.2565 1.49442C41.223 0 37.2516 0 29.3091 0H22.6909C14.7484 0 10.7771 0 7.74341 1.49442C5.07492 2.80894 2.90538 4.90646 1.54572 7.48638ZM29.3091 4.57036H22.6909C18.6416 4.57036 15.889 4.57392 13.7613 4.74197C11.6887 4.90568 10.6289 5.20241 9.88955 5.56663C8.11056 6.44299 6.6642 7.84134 5.75775 9.56128C5.38103 10.2761 5.07411 11.3008 4.90478 13.3045C4.73096 15.3615 4.72727 18.0228 4.72727 21.9377V28.3362C4.72727 32.2512 4.73096 34.9123 4.90478 36.9694C5.07411 38.9733 5.38103 39.9979 5.75775 40.7127C6.6642 42.4326 8.11056 43.8309 9.88955 44.7072C10.6289 45.0715 11.6887 45.3683 13.7613 45.532C15.889 45.6999 18.6416 45.7036 22.6909 45.7036H29.3091C33.3585 45.7036 36.1109 45.6999 38.2387 45.532C40.3113 45.3683 41.3712 45.0715 42.1105 44.7072C43.8894 43.8309 45.3357 42.4326 46.2422 40.7127C46.6189 39.9979 46.926 38.9733 47.0952 36.9694C47.2689 34.9123 47.2727 32.2512 47.2727 28.3362V21.9377C47.2727 18.0228 47.2689 15.3615 47.0952 13.3045C46.926 11.3008 46.6189 10.2761 46.2422 9.56128C45.3357 7.84134 43.8894 6.44299 42.1105 5.56663C41.3712 5.20241 40.3113 4.90568 38.2387 4.74197C36.1109 4.57392 33.3585 4.57036 29.3091 4.57036Z" fill="#790252"/>
</svg>
