<svg width="48" height="43" viewBox="0 0 48 43" fill="none" xmlns="http://www.w3.org/2000/svg">
<path d="M11.8503 13.4638C13.6352 13.4638 15.0822 12.1721 15.0822 10.5787C15.0822 8.98531 13.6352 7.6936 11.8503 7.6936C10.0654 7.6936 8.61841 8.98531 8.61841 10.5787C8.61841 12.1721 10.0654 13.4638 11.8503 13.4638Z" fill="#790252"/>
<path d="M8.61841 17.3107C8.61841 16.2485 9.58306 15.3873 10.773 15.3873H12.9276C14.1175 15.3873 15.0822 16.2485 15.0822 17.3107V32.698C15.0822 33.7603 14.1175 34.6214 12.9276 34.6214H10.773C9.58306 34.6214 8.61841 33.7603 8.61841 32.698V17.3107Z" fill="#790252"/>
<path d="M21.546 34.6214H23.7005C24.8905 34.6214 25.8551 33.7603 25.8551 32.698V24.0427C25.8551 21.1576 32.3189 19.2341 32.3189 23.081V32.6988C32.3189 33.7611 33.2835 34.6214 34.4735 34.6214H36.6281C37.8181 34.6214 38.7827 33.7603 38.7827 32.698V21.1576C38.7827 17.3107 35.5508 15.3873 31.2416 15.3873C26.9324 15.3873 25.8551 18.2724 25.8551 18.2724V17.3107C25.8551 16.2485 24.8905 15.3873 23.7005 15.3873H21.546C20.356 15.3873 19.3914 16.2485 19.3914 17.3107V32.698C19.3914 33.7603 20.356 34.6214 21.546 34.6214Z" fill="#790252"/>
<path fill-rule="evenodd" clip-rule="evenodd" d="M40.9373 0C44.5073 0 47.4011 2.58342 47.4011 5.77022V36.5447C47.4011 39.7316 44.5073 42.315 40.9373 42.315H6.46379C2.89395 42.315 0 39.7316 0 36.5447V5.77022C0 2.58342 2.89395 0 6.46379 0H40.9373ZM40.9373 3.84681C42.1273 3.84681 43.0919 4.70796 43.0919 5.77022V36.5447C43.0919 37.607 42.1273 38.4681 40.9373 38.4681H6.46379C5.27385 38.4681 4.30919 37.607 4.30919 36.5447V5.77022C4.30919 4.70796 5.27385 3.84681 6.46379 3.84681H40.9373Z" fill="#790252"/>
</svg>
