<svg width="55" height="43" viewBox="0 0 55 43" fill="none" xmlns="http://www.w3.org/2000/svg">
<path fill-rule="evenodd" clip-rule="evenodd" d="M46.957 2.82036C47.8283 2.63363 48.4358 2.45005 48.9335 2.25724C49.631 1.987 50.2093 1.66328 51.123 1.11808C51.8908 0.659867 52.8748 0.619967 53.6848 1.01418C54.4948 1.40839 55 2.17303 55 3.00485C55 5.44845 54.6632 7.45124 53.8838 9.2138C53.2278 10.6963 52.3063 11.9005 51.204 12.9965C50.7385 20.5993 48.3048 26.5699 44.584 31.0932C40.7275 35.7815 35.5966 38.7839 30.1878 40.4654C24.7949 42.1416 19.0967 42.5162 13.9919 41.9486C8.92056 41.3848 4.23278 39.8665 0.965313 37.5686C0.0705159 36.9392 -0.244025 35.8442 0.198965 34.9006C0.641964 33.957 1.73159 33.4011 2.85378 33.5462C6.0687 33.9615 9.16341 33.3005 11.7081 32.3555C11.2072 32.1091 10.7349 31.8424 10.2959 31.5675C7.97704 30.1159 6.10617 28.1453 5.2641 26.6223C4.91562 25.9923 4.91202 25.251 5.25437 24.6183C5.43097 24.2916 5.68922 24.0133 6.00277 23.801C2.61711 21.2743 1.25016 17.7796 1.25016 15.4384C1.25016 14.7422 1.60486 14.0849 2.21166 13.6565C2.46681 13.4764 2.75456 13.3452 3.05788 13.2661C2.80453 12.5953 2.60793 11.9175 2.45808 11.2614C1.79366 8.35227 1.85264 5.06877 2.57481 2.45658C2.82193 1.56268 3.64428 0.893866 4.6534 0.766049C5.6625 0.638255 6.65642 1.07705 7.16562 1.87517C9.85938 6.09732 14.828 8.67809 19.4523 10.2069C21.6264 10.9256 23.6399 11.3836 25.1491 11.6652C25.4749 8.90588 26.3268 6.63033 27.6346 4.82297C29.3598 2.43847 31.7661 1.02767 34.3501 0.398605C38.8068 -0.686277 43.752 0.549706 46.957 2.82036ZM24.3711 16.136C22.6584 15.825 20.3044 15.3025 17.7354 14.4532C14.3424 13.3315 10.4024 11.5825 7.10197 8.87314C7.16104 9.3717 7.24489 9.86604 7.35474 10.347C7.90786 12.7689 8.93566 14.1252 9.86818 14.5469C11.0087 15.0625 11.5373 16.2717 11.0948 17.3532C10.4958 18.8175 8.92039 18.9375 7.48894 18.614C8.64024 20.1747 10.7096 21.731 14.1611 22.2511C15.3516 22.4306 16.2303 23.3534 16.2498 24.4446C16.2693 25.5359 15.4239 26.4837 14.2404 26.6978L12.0643 27.0914C12.3972 27.353 12.7576 27.6095 13.1419 27.8501C14.8842 28.9408 16.6335 29.4113 18.1438 29.0699C19.2749 28.8142 20.4513 29.2994 20.9792 30.2396C21.5071 31.1795 21.2463 32.3248 20.3506 32.9996C18.7408 34.2113 16.8608 35.1836 14.9766 35.9904C14.092 36.3693 13.1035 36.7432 12.0299 37.0724C12.8556 37.2317 13.7148 37.3624 14.6021 37.4612C19.0285 37.9533 23.9554 37.6215 28.5623 36.1896C33.1536 34.7624 37.3973 32.2545 40.5723 28.3949C43.7425 24.5405 45.955 19.2065 46.2518 11.9639C46.275 11.3937 46.536 10.8525 46.9823 10.449C48.1063 9.43254 49.0353 8.26742 49.4923 6.88059C48.6925 7.10604 47.792 7.30118 46.7195 7.4866C45.9058 7.62725 45.068 7.39434 44.4823 6.8647C42.571 5.13637 38.7911 3.99981 35.6498 4.76445C34.1716 5.12432 32.8278 5.90338 31.8186 7.29826C30.7883 8.72242 30.0001 10.941 30.0001 14.3082C30.0001 14.9479 29.7003 15.5576 29.1753 15.9863C27.9303 17.0024 25.8351 16.4018 24.3711 16.136Z" fill="#790252"/>
</svg>
